Coordinates
version=1
nRows=19
nColumns=33
inDegrees=yes

Units are S.I. units (second, meters, Newtons, ...)
Angles are in degrees.

endheader
time	ground_thorax_rot_x	ground_thorax_rot_y	ground_thorax_rot_z	ground_thorax_tx	ground_thorax_ty	ground_thorax_tz	clav_prot_r	clav_elev_r	scapula_abduction_r	scapula_elevation_r	scapula_upward_rot_r	scapula_winging_r	shoulder_elv_r	plane_of_elev_r	axial_rot_r	elbow_flexion_r	pro_sup_r	wrist_flex_r	wrist_dev_r	clav_prot_l	clav_elev_l	scapula_abduction_l	scapula_elevation_l	scapula_upward_rot_l	scapula_winging_l	shoulder_elv_l	plane_of_elev_l	axial_rot_l	elbow_flexion_l	pro_sup_l	wrist_flex_l	wrist_dev_l	
5.4700	-15.939232	-35.249645	61.010477	12.789193	783.262422	-41.501331	29.728862	-45.000000	39.599589	-45.000000	-45.000000	-2623.345109	-2266.947052	160.720853	39.048720	3240.665751	-186.398038	11.264935	12.874638	-1.619509	30.598838	-26.543213	-45.000000	-45.000000	-3157.176673	-2971.150372	133.775423	-105.545217	348.344564	44.024442	12.893632	-14.596122	
5.4800	-15.913492	-35.204624	61.045500	12.860176	783.147167	-41.555193	29.763598	-45.000000	39.625041	-45.000000	-45.000000	-2623.379900	-2266.934964	160.734322	39.340824	3240.620579	-187.083051	11.156855	12.881699	-1.677962	30.589569	-26.537089	-45.000000	-45.000000	-3157.164098	-2971.130580	133.813117	-105.530746	348.310200	43.787787	12.908101	-14.579004	
5.4900	-15.846952	-35.166098	61.124501	12.912477	783.051615	-41.606828	29.775998	-45.000000	39.642809	-45.000000	-45.000000	-2623.383863	-2266.884722	160.775017	39.619923	3240.599703	-187.735853	11.152943	12.841130	-1.693865	30.517639	-26.451432	-45.000000	-45.000000	-3157.190530	-2971.073509	133.821050	-105.511702	348.309628	43.571522	12.856883	-14.464375	
5.5000	-15.826341	-35.113074	61.151108	12.924307	782.998700	-41.656343	29.786192	-45.000000	39.659443	-45.000000	-45.000000	-2623.390462	-2266.849625	160.797589	39.812285	3240.584804	-188.292366	11.109173	12.823443	-1.699811	30.495830	-26.438324	-45.000000	-45.000000	-3157.179387	-2971.051349	133.830580	-105.543992	348.309902	43.371745	12.840415	-14.417952	
5.5100	-15.823647	-35.053635	61.154257	12.888270	782.993737	-41.703926	29.791438	-45.000000	39.664943	-45.000000	-45.000000	-2623.391587	-2266.807154	160.806135	39.937827	3240.578658	-188.769719	11.074819	12.807104	-1.686850	30.486716	-26.438190	-45.000000	-45.000000	-3157.155881	-2971.035143	133.825298	-105.598496	348.330290	43.187946	12.821725	-14.385664	
5.5200	-15.844050	-34.988029	61.129605	12.793243	783.045074	-41.751414	29.794600	-45.000000	39.664763	-45.000000	-45.000000	-2623.390800	-2266.761775	160.798605	40.005646	3240.576208	-189.185281	11.033411	12.793364	-1.665467	30.500047	-26.462963	-45.000000	-45.000000	-3157.117554	-2971.023110	133.811458	-105.664852	348.362663	43.010318	12.809208	-14.384223	
5.5300	-15.879246	-34.924191	61.085867	12.633549	783.157830	-41.797190	29.793529	-45.000000	39.662347	-45.000000	-45.000000	-2623.384376	-2266.713251	160.779353	40.020748	3240.579497	-189.544194	11.002018	12.786379	-1.634610	30.517395	-26.499101	-45.000000	-45.000000	-3157.065921	-2971.008415	133.790385	-105.723126	348.406518	42.844103	12.793430	-14.388746	
5.5400	-15.934304	-34.864349	61.020901	12.405028	783.333614	-41.843251	29.792581	-45.000000	39.661943	-45.000000	-45.000000	-2623.377681	-2266.667235	160.748046	40.005280	3240.581238	-189.870675	10.961214	12.782400	-1.608591	30.549755	-26.549844	-45.000000	-45.000000	-3157.006103	-2970.978959	133.768636	-105.760081	348.447999	42.681814	12.781607	-14.416083	
5.5500	-16.004664	-34.812059	60.939491	12.106613	783.574892	-41.887405	29.781269	-45.000000	39.667430	-45.000000	-45.000000	-2623.362791	-2266.621983	160.717196	39.947188	3240.588708	-190.163953	10.937902	12.791786	-1.572186	30.573645	-26.616654	-45.000000	-45.000000	-3156.931082	-2970.941395	133.745486	-105.775016	348.489187	42.536683	12.763991	-14.430967	
5.5600	-16.094878	-34.764514	60.840924	11.738016	783.882696	-41.929321	29.760825	-45.000000	39.679809	-45.000000	-45.000000	-2623.346217	-2266.582383	160.688464	39.854315	3240.591220	-190.422975	10.909811	12.804803	-1.537147	30.608697	-26.705048	-45.000000	-45.000000	-3156.850173	-2970.888407	133.729443	-105.763975	348.521533	42.409899	12.751017	-14.462942	
5.5700	-16.206551	-34.721012	60.720808	11.300518	784.258298	-41.966311	29.721130	-45.000000	39.685743	-45.000000	-45.000000	-2623.318276	-2266.539341	160.661368	39.720778	3240.596912	-190.634409	10.907560	12.827708	-1.486848	30.630166	-26.811657	-45.000000	-45.000000	-3156.756240	-2970.825465	133.705811	-105.725177	348.553319	42.316598	12.729835	-14.477209	
5.5800	-16.339669	-34.678411	60.578344	10.794285	784.701638	-41.998621	29.669137	-45.000000	39.687972	-45.000000	-45.000000	-2623.294478	-2266.495610	160.626776	39.545508	3240.587254	-190.800667	10.892184	12.845551	-1.435073	30.676570	-26.930796	-45.000000	-45.000000	-3156.666143	-2970.746107	133.686169	-105.657599	348.583368	42.248098	12.715132	-14.524929	
5.5900	-16.489888	-34.638504	60.413393	10.219777	785.212933	-42.024514	29.604034	-45.000000	39.684351	-45.000000	-45.000000	-2623.264075	-2266.445848	160.586837	39.332110	3240.574322	-190.926411	10.899201	12.868627	-1.371128	30.713395	-27.057523	-45.000000	-45.000000	-3156.567423	-2970.660155	133.655340	-105.565229	348.626709	42.207362	12.691214	-14.562016	
5.6000	-16.654602	-34.602958	60.234549	9.576999	785.791738	-42.042521	29.534493	-45.000000	39.680959	-45.000000	-45.000000	-2623.240836	-2266.400695	160.538100	39.082690	3240.549322	-191.008691	10.893854	12.892545	-1.312120	30.768440	-27.191247	-45.000000	-45.000000	-3156.466709	-2970.563833	133.629603	-105.444918	348.676941	42.183903	12.675262	-14.631445	
5.6100	-16.843866	-34.569190	60.028587	8.865271	786.437078	-42.051619	29.458071	-45.000000	39.662188	-45.000000	-45.000000	-2623.210478	-2266.352223	160.477087	38.809589	3240.530930	-191.049503	10.901239	12.928351	-1.251841	30.811841	-27.346432	-45.000000	-45.000000	-3156.345194	-2970.467715	133.594153	-105.302414	348.728998	42.176643	12.662448	-14.697284	
5.6200	-17.036517	-34.542599	59.823688	8.084099	787.146830	-42.051288	29.372206	-45.000000	39.651104	-45.000000	-45.000000	-2623.186940	-2266.303875	160.415406	38.498161	3240.508710	-191.051435	10.909672	12.961622	-1.187374	30.865038	-27.498379	-45.000000	-45.000000	-3156.227187	-2970.362667	133.567505	-105.145179	348.782410	42.174585	12.655117	-14.778189	
5.6300	-17.223517	-34.522848	59.623767	7.232620	787.918392	-42.041569	29.293922	-45.000000	39.660494	-45.000000	-45.000000	-2623.169592	-2266.252059	160.355094	38.156423	3240.487421	-191.018275	10.940993	12.996314	-1.125793	30.905521	-27.644557	-45.000000	-45.000000	-3156.107819	-2970.255876	133.541522	-104.983935	348.835240	42.174455	12.648083	-14.845903	
5.6400	-17.389985	-34.512814	59.451622	6.310602	788.748148	-42.023007	29.226747	-45.000000	39.700824	-45.000000	-45.000000	-2623.170145	-2266.199196	160.300958	37.776674	3240.461608	-190.956148	10.982896	13.023313	-1.067356	30.951173	-27.768815	-45.000000	-45.000000	-3156.000977	-2970.141542	133.527875	-104.828300	348.886521	42.167242	12.645190	-14.917178	
5.6500	-17.551117	-34.503344	59.281511	5.317434	789.632728	-41.996677	29.173959	-45.000000	39.755861	-45.000000	-45.000000	-2623.179626	-2266.136910	160.242191	37.375641	3240.433570	-190.872129	11.037921	13.043443	-1.016833	30.995638	-27.889059	-45.000000	-45.000000	-3155.895228	-2970.028377	133.514413	-104.683451	348.929842	42.150210	12.649955	-14.987442	
